<svg xmlns="http://www.w3.org/2000/svg" viewBox="0 0 512 512">
  <rect x="0" y="0" width="512" height="512" rx="96" fill="#D98E04"/>
  <rect x="0" y="0" width="512" height="512" rx="96" fill="none" stroke="#B8590A" stroke-width="6" opacity="0.3"/>

  <g transform="translate(96,96)">
    <rect x="0" y="0" width="320" height="320" rx="20" fill="#FBF6EC"/>

    <g stroke="#E7DEC8" stroke-width="4">
      <line x1="106.6" y1="10" x2="106.6" y2="310" />
      <line x1="213.3" y1="10" x2="213.3" y2="310" />
      <line x1="10" y1="106.6" x2="310" y2="106.6" />
      <line x1="10" y1="213.3" x2="310" y2="213.3" />
    </g>

    <g stroke="#2E2A22" stroke-width="7" fill="none">
      <rect x="6" y="6" width="308" height="308" rx="16"/>
      <line x1="106.6" y1="6" x2="106.6" y2="314" />
      <line x1="213.3" y1="6" x2="213.3" y2="314" />
      <line x1="6" y1="106.6" x2="314" y2="106.6" />
      <line x1="6" y1="213.3" x2="314" y2="213.3" />
    </g>

    <text x="36" y="78" font-family="Segoe UI, sans-serif" font-size="58" font-weight="700" fill="#2E2A22">5</text>
    <text x="250" y="78" font-family="Segoe UI, sans-serif" font-size="58" font-weight="700" fill="#2E2A22">2</text>
    <text x="36" y="290" font-family="Segoe UI, sans-serif" font-size="58" font-weight="700" fill="#2E2A22">8</text>

    <g transform="translate(160,160)">
      <path d="M0,-62 L16,-16 L62,0 L16,16 L0,62 L-16,16 L-62,0 L-16,-16 Z"
            fill="#D98E04" stroke="#FBF6EC" stroke-width="6" stroke-linejoin="round"/>
    </g>
  </g>
</svg>
